<svg width="19" height="19" viewBox="0 0 19 19" fill="none" xmlns="http://www.w3.org/2000/svg">
<path d="M18.1947 1.49928C19.0074 2.31086 19.0074 3.62676 18.1947 4.43834L17.0814 5.55533L13.4447 1.91936L14.5617 0.803852C15.3744 -0.00785953 16.6881 -0.00785953 17.5008 0.803852L18.1947 1.49928ZM6.39766 8.9694L12.6061 2.75877L16.2428 6.39401L10.0307 12.6024C9.8043 12.8325 9.52598 13.0032 9.21797 13.1071L5.92266 14.2055C5.57012 14.3094 5.25098 14.2278 5.00977 13.9569C4.77227 13.7491 4.69063 13.3965 4.79453 13.0774L5.89297 9.78209C5.99687 9.47408 6.16758 9.19576 6.39766 8.9694ZM7.125 2.34166C7.78184 2.34166 8.3125 2.90684 8.3125 3.52916C8.3125 4.2194 7.78184 4.71666 7.125 4.71666H3.5625C2.90678 4.71666 2.375 5.28073 2.375 5.90416V15.4376C2.375 16.0944 2.90678 16.6251 3.5625 16.6251H13.0625C13.7193 16.6251 14.25 16.0944 14.25 15.4376V11.8417C14.25 11.2182 14.7807 10.6542 15.4375 10.6542C16.0943 10.6542 16.625 11.2182 16.625 11.8417V15.4376C16.625 17.4044 15.0293 19.0001 13.0625 19.0001H3.5625C1.59496 19.0001 0 17.4044 0 15.4376V5.90416C0 3.93737 1.59496 2.34166 3.5625 2.34166H7.125Z" fill="white"/>
</svg>
