<svg width="226" height="113" viewBox="0 0 226 113" fill="none" xmlns="http://www.w3.org/2000/svg">
<path d="M22.7699 4.87156L6.25511 11.0513C4.92048 11.5507 3.94395 12.7091 3.71982 14.1019C2.09797 24.1811 3.11951 27.0679 7.77945 27.072L11.0104 80.715C11.1333 82.7544 12.791 84.3749 14.8559 84.474L63.7396 86.8211C66.0503 86.932 67.9852 85.1105 67.9852 82.8243V82.1954V68.137C67.9852 65.9986 66.2839 64.2381 64.1224 64.1397L47.7755 63.3957L33.0567 62.7258L28.2374 8.2652C28.0035 5.62269 25.2801 3.93226 22.7699 4.87156Z" fill="#FFFF00"/>
<path d="M159.8 81.385L145.229 82.1123C142.967 82.2252 141.05 80.4815 140.978 78.2437L139.586 35.1949C139.534 33.6085 140.437 32.142 141.886 31.4572L155.18 25.1736C157.782 23.9438 160.814 25.7204 160.97 28.5667L163.639 77.1718C163.761 79.3843 162.04 81.2732 159.8 81.385Z" fill="#FFFF00"/>
<path d="M139.501 13.9624C139.611 7.56548 143.535 3.54152 150.761 3.06185C161.048 2.37904 162.306 7.45049 162.711 13.2811C163.115 19.1117 163.105 24.3653 150.761 25.7713C143.221 26.6301 139.347 22.939 139.501 13.9624Z" fill="#FFFF00"/>
<path d="M186.015 26.7846L171.898 27.9804H168.096C165.786 27.9804 163.944 29.8868 164.051 32.167L165.974 73.2164C166.074 75.3521 167.856 77.0329 170.019 77.0329H191.505C193.654 77.0329 195.429 75.3813 195.552 73.2604C196.007 65.4418 197.049 48.1918 197.405 48.1918C197.765 48.1918 199.535 66.7266 200.285 74.7572C200.478 76.8191 202.227 78.3954 204.322 78.3954H217.818C219.822 78.3954 221.53 76.9457 221.791 74.9829C226.131 42.3987 219.44 21.6447 190.971 29.7972L189.328 28.0487C188.479 27.1457 187.257 26.6794 186.015 26.7846Z" fill="#FFFF00"/>
<path d="M139.155 86.3957C130.076 126.167 75.7027 108.909 96.526 74.7618L113.531 82.2559C111.463 90.2043 118.586 88.8417 118.586 85.8895V75.4431C107.045 79.5265 99.068 75.9106 94.8251 69.2322C88.9407 59.9698 90.2396 44.8168 99.1771 36.1431C104.582 30.898 112.78 28.0223 123.872 30.2513L130.95 26.2541C133.588 24.7645 136.884 26.5696 137.005 29.5697L139.247 85.387C139.261 85.7207 139.23 86.07 139.155 86.3957Z" fill="#FFFF00"/>
<path d="M115.369 43.2293C105.042 48.6562 108.935 56.8549 118.586 55.4924V50.0421C114.793 49.6678 114.38 47.9125 115.369 43.2293Z" fill="#3B4CCA"/>
<path fill-rule="evenodd" clip-rule="evenodd" d="M67.9852 82.1954C69.0075 82.3068 70.0656 82.3637 71.1595 82.3637C80.4879 82.3637 89.138 77.023 94.8251 69.2322C88.9407 59.9698 90.2396 44.8168 99.1771 36.1431C95.2298 27.5577 86.769 23.3193 75.2259 23.3193C58.9438 23.3193 46.5071 35.4098 46.5071 52.5802C46.5071 56.4472 46.9316 60.083 47.7755 63.3957L64.1224 64.1397C66.2839 64.2381 67.9852 65.9986 67.9852 68.137V82.1954Z" fill="#FFFF00"/>
<path d="M71.5285 38.7848H74.5285V32.9201L69.7729 36.3521L71.5285 38.7848ZM82.6635 42.4529L85.6595 42.2983L85.342 36.1461L80.6943 40.1896L82.6635 42.4529ZM71.5285 39.7852L74.5229 39.9682L74.5285 39.8768V39.7852H71.5285ZM6.25511 11.0513L5.20373 8.24155L5.20373 8.24155L6.25511 11.0513ZM22.7699 4.87156L21.7185 2.06182L21.7185 2.06182L22.7699 4.87156ZM28.2374 8.2652L31.2257 8.00076L31.2257 8.00075L28.2374 8.2652ZM33.0567 62.7258L30.0683 62.9903L30.2996 65.6034L32.9203 65.7227L33.0567 62.7258ZM64.1224 64.1397L63.986 67.1366L63.986 67.1366L64.1224 64.1397ZM63.7396 86.8211L63.8835 83.8245L63.8835 83.8245L63.7396 86.8211ZM14.8559 84.474L14.9997 81.4775L14.9997 81.4775L14.8559 84.474ZM11.0104 80.715L14.005 80.5346L14.005 80.5346L11.0104 80.715ZM7.77945 27.072L10.774 26.8916L10.6043 24.0745L7.78211 24.072L7.77945 27.072ZM3.71982 14.1019L0.757925 13.6253L0.757924 13.6253L3.71982 14.1019ZM145.229 82.1123L145.379 85.1086L145.379 85.1086L145.229 82.1123ZM159.8 81.385L159.651 78.3887L159.651 78.3887L159.8 81.385ZM163.639 77.1718L160.644 77.3362L160.644 77.3362L163.639 77.1718ZM160.97 28.5667L163.966 28.4022L163.966 28.4022L160.97 28.5667ZM155.18 25.1736L156.462 27.8859L156.462 27.8859L155.18 25.1736ZM141.886 31.4572L140.604 28.7449L140.604 28.7449L141.886 31.4572ZM139.586 35.1949L142.584 35.0979L142.584 35.0979L139.586 35.1949ZM140.978 78.2437L137.98 78.3407L137.98 78.3407L140.978 78.2437ZM150.761 3.06185L150.96 6.05527L150.761 3.06185ZM139.501 13.9624L142.501 14.0139L139.501 13.9624ZM150.761 25.7713L151.101 28.752L151.101 28.752L150.761 25.7713ZM162.711 13.2811L165.703 13.0735L162.711 13.2811ZM171.898 27.9804V30.9804H172.025L172.151 30.9697L171.898 27.9804ZM186.015 26.7846L185.762 23.7953L186.015 26.7846ZM189.328 28.0487L191.514 25.9944L191.514 25.9944L189.328 28.0487ZM190.971 29.7972L188.784 31.8514L190.037 33.185L191.797 32.6812L190.971 29.7972ZM221.791 74.9829L218.817 74.5868L218.817 74.5868L221.791 74.9829ZM200.285 74.7572L203.272 74.4782L203.272 74.4782L200.285 74.7572ZM195.552 73.2604L192.558 73.0864L192.558 73.0864L195.552 73.2604ZM165.974 73.2164L168.971 73.076L168.971 73.076L165.974 73.2164ZM164.051 32.167L161.055 32.3074L161.055 32.3074L164.051 32.167ZM96.526 74.7618L97.7358 72.0166L95.3322 70.9573L93.9647 73.1999L96.526 74.7618ZM139.155 86.3957L136.23 85.728L136.23 85.728L139.155 86.3957ZM139.247 85.387L142.245 85.2666L142.245 85.2666L139.247 85.387ZM137.005 29.5697L134.007 29.6901L134.007 29.6901L137.005 29.5697ZM130.95 26.2541L129.475 23.6419L129.475 23.6419L130.95 26.2541ZM123.872 30.2513L123.281 33.1925L124.375 33.4125L125.347 32.8636L123.872 30.2513ZM118.586 75.4431H121.586V71.1994L117.586 72.6149L118.586 75.4431ZM113.531 82.2559L116.434 83.0114L117.077 80.5404L114.741 79.5107L113.531 82.2559ZM115.369 43.2293L118.304 43.8493L119.624 37.6046L113.974 40.5736L115.369 43.2293ZM118.586 55.4924L119.006 58.4629L121.586 58.0986V55.4924H118.586ZM118.586 50.0421H121.586V47.3236L118.881 47.0566L118.586 50.0421ZM94.8251 69.2322L97.3573 67.6234L94.8251 69.2322ZM47.7755 63.3957L47.6391 66.3926L47.7755 63.3957ZM49.5071 52.5802C49.5071 37.0532 60.6141 26.3193 75.2259 26.3193V20.3193C57.2736 20.3193 43.5071 33.7664 43.5071 52.5802H49.5071ZM69.7729 36.3521C65.9504 39.1107 63.761 42.5509 64.6362 46.2382C65.4436 49.64 68.542 51.6536 71.3022 52.5194C74.1662 53.4179 77.7319 53.4593 80.6889 51.905C83.9047 50.2147 85.8967 46.896 85.6595 42.2983L79.6674 42.6075C79.7953 45.0861 78.8549 46.0907 77.8973 46.594C76.6809 47.2333 74.8323 47.3385 73.0981 46.7945C71.26 46.2179 70.5761 45.2826 70.474 44.8526C70.4397 44.7081 70.2136 43.4333 73.2841 41.2175L69.7729 36.3521ZM68.5285 38.7848V39.7852H74.5285V38.7848H68.5285ZM68.5341 39.6022C68.3972 41.842 68.7604 43.9289 69.8724 45.5933C71.0371 47.3365 72.7835 48.2553 74.6293 48.5037C78.053 48.9646 81.7889 47.1902 84.6326 44.7162L80.6943 40.1896C78.4773 42.1184 76.4209 42.6908 75.4297 42.5574C75.0682 42.5087 74.9516 42.3951 74.8614 42.2601C74.7185 42.0462 74.4349 41.409 74.5229 39.9682L68.5341 39.6022ZM7.3065 13.861L23.8213 7.68129L21.7185 2.06182L5.20373 8.24155L7.3065 13.861ZM25.249 8.52964L30.0683 62.9903L36.045 62.4614L31.2257 8.00076L25.249 8.52964ZM63.8835 83.8245L14.9997 81.4775L14.712 87.4706L63.5957 89.8176L63.8835 83.8245ZM14.005 80.5346L10.774 26.8916L4.78488 27.2524L8.01585 80.8954L14.005 80.5346ZM7.78211 24.072C6.87749 24.0712 6.55109 23.9219 6.47698 23.8781C6.45456 23.8648 6.44331 23.8558 6.42285 23.8284C6.39618 23.7927 6.32677 23.6865 6.25087 23.4496C6.08573 22.9343 5.95853 22.0243 6.01276 20.4857C6.06596 18.9759 6.28501 17.0439 6.68172 14.5785L0.757924 13.6253C0.34371 16.1995 0.0822534 18.408 0.0164781 20.2744C-0.0482839 22.112 0.0670529 23.8138 0.537055 25.2806C1.03541 26.8358 1.95351 28.1746 3.42532 29.0441C4.80267 29.8577 6.35144 30.0707 7.77679 30.072L7.78211 24.072ZM64.9852 82.8243C64.9852 83.3614 64.5187 83.855 63.8835 83.8245L63.5957 89.8176C67.5819 90.009 70.9852 86.8596 70.9852 82.8243H64.9852ZM63.986 67.1366C64.5766 67.1635 64.9852 67.6335 64.9852 68.137H70.9852C70.9852 64.3637 67.9912 61.3126 64.2588 61.1428L63.986 67.1366ZM23.8213 7.68129C24.5164 7.42116 25.1939 7.90618 25.249 8.52964L31.2257 8.00075C30.8132 3.33921 26.0437 0.443358 21.7185 2.06182L23.8213 7.68129ZM14.9997 81.4775C14.4363 81.4504 14.0341 81.0171 14.005 80.5346L8.01585 80.8954C8.23247 84.4917 11.1457 87.2994 14.712 87.4706L14.9997 81.4775ZM5.20373 8.24155C2.89945 9.1038 1.16006 11.1262 0.757925 13.6253L6.68172 14.5785C6.72784 14.2919 6.9415 13.9976 7.3065 13.861L5.20373 8.24155ZM145.379 85.1086L159.95 84.3813L159.651 78.3887L145.08 79.116L145.379 85.1086ZM166.635 77.0073L163.966 28.4022L157.975 28.7312L160.644 77.3362L166.635 77.0073ZM153.898 22.4613L140.604 28.7449L143.168 34.1695L156.462 27.8859L153.898 22.4613ZM136.587 35.2919L137.98 78.3407L143.977 78.1467L142.584 35.0979L136.587 35.2919ZM150.563 0.0684418C146.446 0.341702 142.904 1.65298 140.36 4.15364C137.792 6.67741 136.567 10.0924 136.502 13.9109L142.501 14.0139C142.545 11.4355 143.337 9.64003 144.566 8.43267C145.817 7.20221 147.85 6.26167 150.96 6.05527L150.563 0.0684418ZM136.502 13.9109C136.419 18.7278 137.387 22.8732 140.1 25.651C142.893 28.5122 146.845 29.2367 151.101 28.752L150.422 22.7906C147.137 23.1647 145.382 22.473 144.393 21.4593C143.321 20.3621 142.43 18.1737 142.501 14.0139L136.502 13.9109ZM151.101 28.752C157.545 28.018 161.76 26.1924 164.004 22.8621C166.161 19.662 165.894 15.8287 165.703 13.0735L159.718 13.4887C159.931 16.5642 159.862 18.273 159.029 19.5088C158.284 20.6144 156.322 22.1186 150.422 22.7906L151.101 28.752ZM165.703 13.0735C165.504 10.194 165.083 6.5132 162.712 3.76792C160.172 0.826978 156.129 -0.301026 150.563 0.0684418L150.96 6.05527C155.681 5.74192 157.41 6.80823 158.171 7.68997C159.102 8.76737 159.513 10.5376 159.718 13.4887L165.703 13.0735ZM140.604 28.7449C138.088 29.934 136.497 32.4956 136.587 35.2919L142.584 35.0979C142.572 34.7213 142.786 34.35 143.168 34.1695L140.604 28.7449ZM163.966 28.4022C163.69 23.3779 158.38 20.343 153.898 22.4613L156.462 27.8859C157.185 27.5445 157.938 28.063 157.975 28.7312L163.966 28.4022ZM159.95 84.3813C163.816 84.1883 166.849 80.9134 166.635 77.0073L160.644 77.3362C160.672 77.8553 160.263 78.3582 159.651 78.3887L159.95 84.3813ZM145.08 79.116C144.458 79.147 143.994 78.6739 143.977 78.1467L137.98 78.3407C138.107 82.2891 141.475 85.3034 145.379 85.1086L145.08 79.116ZM172.151 30.9697L186.268 29.7739L185.762 23.7953L171.645 24.9911L172.151 30.9697ZM187.141 30.1029L188.784 31.8514L193.157 27.7429L191.514 25.9944L187.141 30.1029ZM191.797 32.6812C198.598 30.7334 203.745 30.62 207.58 31.7197C211.318 32.7915 214.082 35.0901 216.077 38.5972C220.236 45.9083 220.98 58.3521 218.817 74.5868L224.765 75.379C226.943 59.0295 226.511 44.8042 221.292 35.6303C218.598 30.8949 214.622 27.4971 209.234 25.9522C203.943 24.4352 197.577 24.7846 190.145 26.9131L191.797 32.6812ZM217.818 75.3954H204.322V81.3954H217.818V75.3954ZM203.272 74.4782C202.897 70.4608 202.266 63.8077 201.683 58.1553C201.392 55.3323 201.111 52.7412 200.879 50.8485C200.764 49.9083 200.657 49.1068 200.563 48.526C200.518 48.2471 200.466 47.9544 200.406 47.7044C200.381 47.5981 200.327 47.3806 200.233 47.1444C200.194 47.0447 200.084 46.7737 199.874 46.4763C199.809 46.384 199.015 45.1918 197.405 45.1918V51.1918C195.806 51.1918 195.024 50.0087 194.971 49.9343C194.774 49.6547 194.677 49.4105 194.652 49.3461C194.613 49.2486 194.592 49.1758 194.584 49.1489C194.579 49.1319 194.576 49.1192 194.574 49.1118C194.572 49.1042 194.571 49.1 194.571 49.0995C194.57 49.0993 194.573 49.1082 194.577 49.1283C194.581 49.1479 194.586 49.1745 194.593 49.2089C194.606 49.2783 194.621 49.3686 194.64 49.4819C194.714 49.946 194.81 50.6553 194.924 51.5783C195.148 53.4118 195.424 55.9563 195.715 58.7708C196.294 64.3934 196.923 71.023 197.298 75.0362L203.272 74.4782ZM197.405 45.1918C195.837 45.1918 195.048 46.3175 194.938 46.4722C194.715 46.7875 194.603 47.076 194.563 47.1821C194.469 47.4319 194.418 47.6591 194.396 47.7635C194.343 48.0129 194.301 48.2986 194.267 48.5609C194.195 49.1106 194.119 49.8644 194.041 50.7433C193.884 52.5144 193.704 54.9399 193.523 57.5894C193.16 62.8951 192.785 69.1748 192.558 73.0864L198.547 73.4344C198.774 69.5274 199.148 63.2728 199.509 57.9989C199.689 55.3585 199.866 52.9829 200.018 51.2753C200.094 50.4148 200.161 49.76 200.217 49.3357C200.23 49.2326 200.242 49.1522 200.251 49.092C200.261 49.0282 200.266 49.0053 200.265 49.0114C200.264 49.0153 200.259 49.0397 200.248 49.0783C200.24 49.1112 200.217 49.1931 200.176 49.301C200.149 49.3743 200.048 49.6379 199.837 49.9365C199.739 50.0746 198.961 51.1918 197.405 51.1918V45.1918ZM168.971 73.076L167.048 32.0266L161.055 32.3074L162.978 73.3568L168.971 73.076ZM168.096 30.9804H171.898V24.9804H168.096V30.9804ZM191.505 74.0329H170.019V80.0329H191.505V74.0329ZM167.048 32.0266C167.023 31.4922 167.462 30.9804 168.096 30.9804V24.9804C164.11 24.9804 160.866 28.2815 161.055 32.3074L167.048 32.0266ZM162.978 73.3568C163.154 77.124 166.285 80.0329 170.019 80.0329V74.0329C169.427 74.0329 168.995 73.5803 168.971 73.076L162.978 73.3568ZM204.322 75.3954C203.747 75.3954 203.318 74.9693 203.272 74.4782L197.298 75.0362C197.637 78.6688 200.707 81.3954 204.322 81.3954V75.3954ZM218.817 74.5868C218.762 75.0001 218.378 75.3954 217.818 75.3954V81.3954C221.265 81.3954 224.297 78.8914 224.765 75.379L218.817 74.5868ZM192.558 73.0864C192.529 73.5856 192.1 74.0329 191.505 74.0329V80.0329C195.208 80.0329 198.33 77.177 198.547 73.4344L192.558 73.0864ZM186.268 29.7739C186.604 29.7454 186.925 29.8728 187.141 30.1029L191.514 25.9944C190.033 24.4185 187.911 23.6133 185.762 23.7953L186.268 29.7739ZM93.9647 73.1999C88.3856 82.3489 87.6017 90.8226 90.3384 97.689C93.0462 104.483 98.9876 109.153 105.771 111.173C112.562 113.196 120.411 112.639 127.219 108.766C134.083 104.861 139.645 97.7275 142.08 87.0634L136.23 85.728C134.125 94.9495 129.486 100.573 124.252 103.551C118.962 106.56 112.817 107.012 107.483 105.423C102.141 103.832 97.8263 100.271 95.912 95.4676C94.0266 90.7371 94.2548 84.2484 99.0873 76.3238L93.9647 73.1999ZM142.245 85.2666L140.002 29.4492L134.007 29.6901L136.25 85.5075L142.245 85.2666ZM129.475 23.6419L122.396 27.6391L125.347 32.8636L132.425 28.8664L129.475 23.6419ZM115.586 75.4431V85.8895H121.586V75.4431H115.586ZM115.586 85.8895C115.586 85.338 115.913 85.1415 115.855 85.1797C115.8 85.2163 115.754 85.1965 115.833 85.2112C115.897 85.2233 116.004 85.2602 116.11 85.346C116.221 85.4357 116.247 85.5109 116.234 85.4792C116.188 85.365 116 84.6803 116.434 83.0114L110.627 81.5005C110.028 83.8058 109.954 85.9313 110.662 87.7049C111.432 89.6315 112.991 90.7848 114.733 91.1096C116.334 91.4082 117.94 90.9909 119.156 90.1901C120.369 89.3909 121.586 87.9171 121.586 85.8895H115.586ZM95.3162 77.5071L112.321 85.0012L114.741 79.5107L97.7358 72.0166L95.3162 77.5071ZM140.002 29.4492C139.789 24.1516 134.017 21.0766 129.475 23.6419L132.425 28.8664C133.158 28.4525 133.979 28.9877 134.007 29.6901L140.002 29.4492ZM142.08 87.0634C142.215 86.4738 142.269 85.8593 142.245 85.2666L136.25 85.5074C136.253 85.582 136.245 85.6661 136.23 85.728L142.08 87.0634ZM113.974 40.5736C108.413 43.4957 105 48.1377 106.652 52.8916C108.238 57.456 113.579 59.2291 119.006 58.4629L118.167 52.5218C113.942 53.1183 112.511 51.4732 112.32 50.9222C112.194 50.5606 111.998 48.3897 116.765 45.8849L113.974 40.5736ZM121.586 55.4924V50.0421H115.586V55.4924H121.586ZM118.881 47.0566C118.111 46.9807 117.805 46.8566 117.732 46.8184C117.714 46.8089 117.759 46.8299 117.822 46.8976C117.889 46.9678 117.929 47.039 117.947 47.0811C117.968 47.1311 117.887 46.9715 117.918 46.3654C117.947 45.7733 118.068 44.9674 118.304 43.8493L112.434 42.6092C112.176 43.8328 111.978 45.0025 111.925 46.0684C111.873 47.1203 111.947 48.3009 112.422 49.422C113.546 52.0738 116.101 52.8115 118.292 53.0276L118.881 47.0566ZM124.463 27.3101C112.518 24.9097 103.282 27.9785 97.0878 33.9903L101.266 38.296C105.881 33.8175 113.041 31.1349 123.281 33.1925L124.463 27.3101ZM75.2259 26.3193C86.0293 26.3193 93.1515 30.219 96.4514 37.3963L101.903 34.8899C97.3081 24.8964 87.5087 20.3193 75.2259 20.3193V26.3193ZM97.0878 33.9903C92.048 38.8813 89.2368 45.5141 88.4633 52.1179C87.6917 58.7046 88.9174 65.5276 92.2929 70.8409L97.3573 67.6234C94.8485 63.6743 93.7814 58.2897 94.4225 52.8159C95.0617 47.3591 97.3687 42.0786 101.266 38.296L97.0878 33.9903ZM92.2929 70.8409C94.7492 74.7072 98.3551 77.7757 103.082 79.2391C107.795 80.6984 113.348 80.4786 119.587 78.2713L117.586 72.6149C112.283 74.4911 108.078 74.505 104.856 73.5076C101.648 72.5143 99.1439 70.4356 97.3573 67.6234L92.2929 70.8409ZM92.4021 67.4634C87.1434 74.6672 79.3201 79.3637 71.1595 79.3637V85.3637C81.6557 85.3637 91.1326 79.3788 97.2482 71.001L92.4021 67.4634ZM67.6601 85.1777C68.7948 85.3014 69.9615 85.3637 71.1595 85.3637V79.3637C70.1698 79.3637 69.2202 79.3122 68.3102 79.213L67.6601 85.1777ZM43.5071 52.5802C43.5071 56.6633 43.955 60.551 44.8683 64.1363L50.6826 62.6551C49.9082 59.6151 49.5071 56.2312 49.5071 52.5802H43.5071ZM47.6391 66.3926L63.986 67.1366L64.2588 61.1428L47.9119 60.3988L47.6391 66.3926ZM64.9852 68.137V82.1954H70.9852V68.137H64.9852ZM32.9203 65.7227L47.6391 66.3926L47.9119 60.3988L33.1931 59.7289L32.9203 65.7227ZM64.9852 82.1954V82.8243H70.9852V82.1954H64.9852Z" fill="#3B4CCA"/>
</svg>
