<svg width="34" height="28" viewBox="0 0 34 28" fill="none" xmlns="http://www.w3.org/2000/svg">
<path d="M0.292894 13.0604C-0.0976299 13.4509 -0.09763 14.0841 0.292894 14.4746L6.65685 20.8386C7.04738 21.2291 7.68054 21.2291 8.07107 20.8386C8.46159 20.4481 8.46159 19.8149 8.07107 19.4244L2.41421 13.7675L8.07107 8.11067C8.46159 7.72014 8.46159 7.08698 8.07107 6.69645C7.68055 6.30593 7.04738 6.30593 6.65686 6.69645L0.292894 13.0604ZM33 4.00001L32 4.00001V4.00001L33 4.00001ZM33 23.535L34 23.535V23.535L33 23.535ZM25.1056 12.7675L1 12.7675L1 14.7675L25.1056 14.7675L25.1056 12.7675ZM13.3706 7.56245L13.3706 4.00001L11.3706 4.00001L11.3706 7.56245L13.3706 7.56245ZM15.3706 2.00001L30 2.00001L30 1.30892e-05L15.3706 1.18102e-05L15.3706 2.00001ZM32 4.00001L32 23.535L34 23.535L34 4.00001L32 4.00001ZM30 25.535L15.3706 25.535L15.3706 27.535L30 27.535L30 25.535ZM13.3706 23.535L13.3706 20.1675L11.3706 20.1675L11.3706 23.535L13.3706 23.535ZM15.3706 25.535C14.266 25.535 13.3706 24.6396 13.3706 23.535L11.3706 23.535C11.3706 25.7442 13.1614 27.535 15.3706 27.535L15.3706 25.535ZM32 23.535C32 24.6396 31.1046 25.535 30 25.535L30 27.535C32.2091 27.535 34 25.7442 34 23.535L32 23.535ZM30 2.00001C31.1046 2.00001 32 2.89544 32 4.00001L34 4.00001C34 1.79088 32.2091 1.32823e-05 30 1.30892e-05L30 2.00001ZM13.3706 4.00001C13.3706 2.89544 14.266 2.00001 15.3706 2.00001L15.3706 1.18102e-05C13.1614 1.16171e-05 11.3706 1.79087 11.3706 4.00001L13.3706 4.00001Z" fill="black"/>
</svg>
