<svg width="416" height="578" viewBox="0 0 416 578" fill="none" xmlns="http://www.w3.org/2000/svg">
<path d="M2.5 101.857C2.5 94.9532 8.09644 89.3567 15 89.3567H190.072C197.413 89.3567 204.449 86.4219 209.614 81.2055L283.874 6.20508C286.222 3.83403 289.42 2.5 292.757 2.5H358.563H401C407.904 2.5 413.5 8.09644 413.5 15V562.024C413.5 568.927 407.904 574.524 401 574.524H15C8.09645 574.524 2.5 568.927 2.5 562.024V101.857Z" fill="#D23B2D" stroke="black" stroke-width="5"/>
<path d="M24.5 129C24.5 122.096 30.0964 116.5 37 116.5H198.427C205.862 116.5 212.98 113.49 218.158 108.155L289.375 34.7933C291.729 32.3684 294.964 31 298.344 31H380C386.904 31 392.5 36.5964 392.5 43.5V538.5C392.5 545.404 386.904 551 380 551H37C30.0964 551 24.5 545.404 24.5 538.5V129Z" fill="#D23B2D" stroke="black" stroke-width="5"/>
<rect x="134" y="379" width="62" height="7" rx="3.5" fill="#FF0000" stroke="black" stroke-width="2"/>
<rect x="205" y="379" width="62" height="7" rx="3.5" fill="#0000FF" stroke="black" stroke-width="2"/>
<circle cx="73.5" cy="429.5" r="27.5" fill="black"/>
<circle cx="72.5" cy="428.5" r="25.5" fill="#221E1E" stroke="black" stroke-width="2"/>
<path fill-rule="evenodd" clip-rule="evenodd" d="M312.5 389C312.5 387.343 313.843 386 315.5 386H339.5C341.157 386 342.5 387.343 342.5 389V407.5C342.5 409.157 343.843 410.5 345.5 410.5H368C369.657 410.5 371 411.843 371 413.5V441C371 442.657 369.657 444 368 444H348.5C346.843 444 345.5 445.343 345.5 447V468C345.5 469.657 344.157 471 342.5 471H315.5C313.843 471 312.5 469.657 312.5 468V447C312.5 445.343 311.157 444 309.5 444H288C286.343 444 285 442.657 285 441V413.5C285 411.843 286.343 410.5 288 410.5H309.5C311.157 410.5 312.5 409.157 312.5 407.5V389ZM327.5 414C308 414 309.5 441 327.5 441C345.5 441 347 414 327.5 414Z" fill="#221E1E"/>
<path d="M327.5 414C308 414 309.5 441 327.5 441C345.5 441 347 414 327.5 414Z" fill="#221E1E"/>
<path fill-rule="evenodd" clip-rule="evenodd" d="M312.5 389C312.5 387.343 313.843 386 315.5 386H339.5C341.157 386 342.5 387.343 342.5 389V407.5C342.5 409.157 343.843 410.5 345.5 410.5H368C369.657 410.5 371 411.843 371 413.5V441C371 442.657 369.657 444 368 444H348.5C346.843 444 345.5 445.343 345.5 447V468C345.5 469.657 344.157 471 342.5 471H315.5C313.843 471 312.5 469.657 312.5 468V447C312.5 445.343 311.157 444 309.5 444H288C286.343 444 285 442.657 285 441V413.5C285 411.843 286.343 410.5 288 410.5H309.5C311.157 410.5 312.5 409.157 312.5 407.5V389ZM327.5 414C308 414 309.5 441 327.5 441C345.5 441 347 414 327.5 414Z" stroke="black" stroke-width="2"/>
<path d="M327.5 414C308 414 309.5 441 327.5 441C345.5 441 347 414 327.5 414Z" stroke="black" stroke-width="2"/>
<rect x="113.5" y="403.5" width="153" height="100" rx="4.5" fill="#91A974" stroke="black" stroke-width="3"/>
</svg>
