<svg width="1030" height="1029" viewBox="0 0 1030 1029" fill="none" xmlns="http://www.w3.org/2000/svg">
<path fill-rule="evenodd" clip-rule="evenodd" d="M482.5 0.625911C457.107 2.15591 422.723 6.56191 403.5 10.7499C321.332 28.6499 252 62.3629 188.386 115.351C130.699 163.402 86.8042 219.076 54.5232 285.136C42.2292 310.296 35.2342 327.471 26.4362 354.099C16.0362 385.575 11.6402 402.747 12.5052 408.515C13.9272 418 20.2082 425.444 28.5642 427.548C34.6212 429.073 167.976 429.048 173.477 427.521C181.02 425.427 183.64 421.382 195.427 393.636C210.999 356.982 220.69 337.359 230.39 322.837C272.823 259.312 336.431 211.227 409 187.817C447.735 175.321 479.724 170.918 524.293 171.947C561.802 172.814 586.468 176.673 619.5 186.845C662.125 199.971 708.772 226.853 742.311 257.618L748.123 262.949L699.206 312.042C645.844 365.598 646.07 365.324 643.793 379.063C640.229 400.576 655.929 422.952 677.799 427.527C685.354 429.108 986.754 429.092 994.201 427.511C1005.63 425.085 1017.41 416.617 1023.26 406.633C1029.28 396.362 1029 404.686 1029 235.636C1029 65.0289 1029.36 74.8939 1022.71 63.7759C1013.71 48.7419 996.198 40.4829 979.414 43.3579C965.776 45.6939 965.635 45.8089 915.332 95.9159L869.163 141.904L858.832 132.624C783.015 64.5199 687.739 19.9519 585.407 4.72191C559.365 0.846912 510.879 -1.08309 482.5 0.625911ZM33.5002 601.047C25.5122 603.029 18.9292 606.972 12.7092 613.498C6.17824 620.35 2.36723 627.754 0.965234 636.315C-0.339766 644.283 -0.312766 941.149 0.993234 949.136C5.74323 978.176 38.8022 994.363 63.9752 979.976C66.6352 978.456 87.3272 958.62 114.179 931.848L159.859 886.307L167.269 893.227C237.715 959.016 332.636 1005.48 429.5 1021.58C490.532 1031.73 559.154 1030.29 621.5 1017.56C715.041 998.45 801.37 951.263 871.998 880.634C938.967 813.666 984.967 731.058 1009.54 633.636C1012.69 621.137 1012.48 615.477 1008.67 609.716C1007.23 607.533 1003.9 604.484 1001.27 602.941L996.5 600.136L928.5 599.843C877.194 599.622 859.412 599.85 856.07 600.774C848.059 602.986 845.595 606.679 834.107 633.695C819.454 668.154 810.922 686.484 805.376 695.419C753.887 778.369 669.236 835.367 572.705 852.083C547.819 856.392 509.376 857.929 484.5 855.608C411.819 848.828 340.358 817.615 286.977 769.334L281.668 764.532L330.656 715.334C387.805 657.938 385.473 661.03 385.49 642.636C385.499 632.873 385.274 631.659 382.278 625.334C376.376 612.872 364.01 603.078 351.114 600.65C342.67 599.061 39.9792 599.439 33.5002 601.047Z" fill="black"/>
</svg>
